<svg width="205" height="50" viewBox="0 0 205 50" fill="none" xmlns="http://www.w3.org/2000/svg">
<path d="M130.02 10.4492H128.156V13.6238H130.02V10.4492Z" fill="white"/>
<path d="M145.858 10.4492H143.994V20.2376H145.858V10.4492Z" fill="white"/>
<path d="M129.887 29.8945H128.023V42.5929H129.887V29.8945Z" fill="white"/>
<path d="M153.445 18.5186H140.135V20.2381H153.445V18.5186Z" fill="white"/>
<path d="M167.686 36.5078L167.287 38.3597L168.884 40.4761L169.284 38.6242L167.686 36.5078Z" fill="white"/>
<path d="M169.949 41.7981L170.615 42.5918H172.345L170.349 39.9463L169.949 41.7981Z" fill="white"/>
<path d="M166.755 35.1847L163.96 31.6133H162.229L166.356 37.0366L166.755 35.1847Z" fill="white"/>
<path d="M170.348 23.4131L166.488 42.593H168.485L172.478 23.4131H170.348Z" fill="white"/>
<path d="M173.011 18.5186H158.503V20.2381H173.011V18.5186Z" fill="white"/>
<path d="M137.34 14.5498H120.569V16.1371H137.34V14.5498Z" fill="white"/>
<path d="M177.136 12.5664V14.1537H190.179L191.51 12.5664H177.136Z" fill="white"/>
<path d="M123.365 32.2754L121.635 42.5929H123.232L124.962 32.2754H123.365Z" fill="white"/>
<path d="M165.69 10.582L161.697 30.4233H163.827L167.82 10.582H165.69Z" fill="white"/>
<path d="M170.348 23.4131L166.488 42.593H168.485L172.478 23.4131H170.348Z" fill="white"/>
<path d="M189.781 12.5664L185.389 19.4447H187.119L191.644 12.5664H189.781Z" fill="white"/>
<path d="M143.861 21.4287L140.001 42.5927H141.997L145.724 21.4287H143.861Z" fill="white"/>
<path d="M135.876 36.7727L134.412 32.2754H132.814L134.279 36.7727H135.876Z" fill="white"/>
<path d="M153.045 16.1372L150.915 12.1689H148.919L151.182 16.1372H153.045Z" fill="white"/>
<path d="M51.625 11.2432H40.7109V13.095H51.625V11.2432Z" fill="white"/>
<path d="M53.0877 16.667H39.5117V18.3866H53.0877V16.667Z" fill="white"/>
<path d="M51.491 22.0898H41.1094V23.8094H51.491V22.0898Z" fill="white"/>
<path d="M51.491 27.1162H41.1094V28.9681H51.491V27.1162Z" fill="white"/>
<path d="M73.5854 14.418H58.8115V16.1375H73.5854V14.418Z" fill="white"/>
<path d="M82.769 9.78809L78.9092 20.5024H81.1718L84.8986 9.78809H82.769Z" fill="white"/>
<path d="M95.0147 42.5923L92.8851 35.9785H90.8887L93.0182 42.5923H95.0147Z" fill="white"/>
<path d="M63.3369 0L55.6172 20.5026H57.8799L65.4664 0H63.3369Z" fill="white"/>
<path d="M95.4137 14.418H82.3701V16.1375H95.4137V14.418Z" fill="white"/>
<path d="M89.558 20.5029H87.5615V26.4553H89.558V20.5029Z" fill="white"/>
<path d="M95.4139 25.2646H79.5752V26.9842H95.4139V25.2646Z" fill="white"/>
<path d="M61.8724 23.9414H59.876V49.9996H61.8724V23.9414Z" fill="white"/>
<path d="M72.7862 23.9414H65.4658V25.9255H72.7862V23.9414Z" fill="white"/>
<path d="M72.7862 32.8047H65.4658V34.7888H72.7862V32.8047Z" fill="white"/>
<path d="M122.033 19.9736V26.8519C122.033 28.307 122.699 28.8361 124.163 28.8361H135.875V19.9736H122.033ZM134.544 26.1906C134.544 27.1165 134.012 27.7779 132.947 27.7779H124.695C123.763 27.7779 123.231 27.1165 123.231 26.1906V22.6191C123.231 21.6932 123.763 21.0318 124.695 21.0318H134.411V26.1906H134.544Z" fill="white"/>
<path d="M148.787 42.5928H153.578V41.27H149.851C148.787 41.27 148.121 40.7409 148.121 39.815V32.0107H146.258V40.4763C146.391 42.0637 147.056 42.5928 148.787 42.5928Z" fill="white"/>
<path d="M43.6382 42.5931H51.6241V32.8047H49.8939V39.683C49.8939 40.7412 49.2284 41.2703 48.1636 41.2703H44.4368C43.372 41.2703 42.8397 40.6089 42.8397 39.683V35.7147C42.8397 34.6565 43.5051 34.1274 44.4368 34.1274H45.7678V32.8047H41.1094V40.3444C41.1094 41.9317 41.908 42.5931 43.6382 42.5931Z" fill="white"/>
<path d="M100.871 39.1534V17.7248C100.871 16.6666 101.536 16.0053 102.601 16.0053H109.788V36.9047H111.652V14.418H99.1406V39.9471C99.1406 41.7989 99.9392 42.5926 101.803 42.5926H104.598V41.0053H102.468C101.403 41.0053 100.871 40.3439 100.871 39.1534Z" fill="white"/>
<path d="M111.519 38.0947H109.655V39.682H111.519V38.0947Z" fill="white"/>
<path d="M111.386 41.0049H109.655V42.5922H111.386V41.0049Z" fill="white"/>
<path d="M86.0973 31.4814L82.6367 42.5926H84.6332L88.0937 31.4814H86.0973Z" fill="white"/>
<path d="M39.5118 8.06836H37.6484V9.92021H39.5118V8.06836Z" fill="white"/>
<path d="M36.0521 5.42285H34.9873V6.48105H36.0521V5.42285Z" fill="white"/>
<path d="M186.853 40.3438V30.0264H184.723V39.5502C184.723 40.4761 184.058 41.1375 182.993 41.1375H179.932V42.7248H184.457C186.187 42.5925 186.853 41.9311 186.853 40.3438Z" fill="white"/>
<path d="M186.986 20.6348H184.856V23.2803H186.986V20.6348Z" fill="white"/>
<path d="M204.687 25.7939H177.136V27.3812H204.687V25.7939Z" fill="white"/>
<path d="M108.19 38.0957V39.683H120.569L120.835 38.0957H108.19Z" fill="white"/>
<path d="M12.2267 8.46582H4.9063C4.3739 8.46582 3.97461 8.86265 3.97461 9.39175V16.6669C3.97461 17.196 4.3739 17.5928 4.9063 17.5928H12.2267C12.7591 17.5928 13.1584 17.196 13.1584 16.6669V9.39175C13.2915 8.86265 12.7591 8.46582 12.2267 8.46582Z" stroke="white" stroke-width="0.9078" stroke-miterlimit="10"/>
<path d="M15.9533 25.3975H3.04278C2.11109 25.3975 1.3125 26.1911 1.3125 27.117V39.9477C1.3125 40.8737 2.11109 41.6673 3.04278 41.6673H15.9533C16.885 41.6673 17.6836 40.8737 17.6836 39.9477V27.117C17.6836 26.1911 16.885 25.3975 15.9533 25.3975Z" stroke="white" stroke-width="0.9078" stroke-miterlimit="10"/>
<mask id="path-48-inside-1_869_1277" fill="white">
<path d="M25.9356 13.625C27.0004 13.625 27.9321 14.551 27.9321 15.6092V30.5563C27.9321 31.6145 27.0004 32.5404 25.9356 32.5404H18.4821V26.4557C18.4821 25.3975 17.6835 24.6039 16.6187 24.6039H8.89905V18.387H12.892C13.5575 18.387 14.0899 17.8579 14.0899 17.1965V13.4928H25.9356M25.9356 12.4346H13.9568H12.7589V13.625V17.1965H8.89905H7.70117V18.387V24.6039V25.7944H8.89905H16.6187C17.018 25.7944 17.2842 26.0589 17.2842 26.4557V32.5404V33.7309H18.4821H25.9356C27.6659 33.7309 29.13 32.2758 29.13 30.5563V15.6092C29.2631 13.7573 27.799 12.4346 25.9356 12.4346Z"/>
</mask>
<path d="M25.9356 13.625C27.0004 13.625 27.9321 14.551 27.9321 15.6092V30.5563C27.9321 31.6145 27.0004 32.5404 25.9356 32.5404H18.4821V26.4557C18.4821 25.3975 17.6835 24.6039 16.6187 24.6039H8.89905V18.387H12.892C13.5575 18.387 14.0899 17.8579 14.0899 17.1965V13.4928H25.9356M25.9356 12.4346H13.9568H12.7589V13.625V17.1965H8.89905H7.70117V18.387V24.6039V25.7944H8.89905H16.6187C17.018 25.7944 17.2842 26.0589 17.2842 26.4557V32.5404V33.7309H18.4821H25.9356C27.6659 33.7309 29.13 32.2758 29.13 30.5563V15.6092C29.2631 13.7573 27.799 12.4346 25.9356 12.4346Z" fill="white"/>
<path d="M18.4821 32.5404H17.4821V33.5404H18.4821V32.5404ZM8.89905 24.6039H7.89905V25.6039H8.89905V24.6039ZM8.89905 18.387V17.387H7.89905V18.387H8.89905ZM14.0899 13.4928V12.4928H13.0899V13.4928H14.0899ZM12.7589 12.4346V11.4346H11.7589V12.4346H12.7589ZM12.7589 17.1965V18.1965H13.7589V17.1965H12.7589ZM7.70117 17.1965V16.1965H6.70117V17.1965H7.70117ZM7.70117 25.7944H6.70117V26.7944H7.70117V25.7944ZM17.2842 33.7309H16.2842V34.7309H17.2842V33.7309ZM29.13 15.6092L28.1325 15.5375L28.13 15.5733V15.6092H29.13ZM25.9356 14.625C26.454 14.625 26.9321 15.1091 26.9321 15.6092H28.9321C28.9321 13.9928 27.5468 12.625 25.9356 12.625V14.625ZM26.9321 15.6092V30.5563H28.9321V15.6092H26.9321ZM26.9321 30.5563C26.9321 31.0563 26.454 31.5404 25.9356 31.5404V33.5404C27.5468 33.5404 28.9321 32.1726 28.9321 30.5563H26.9321ZM25.9356 31.5404H18.4821V33.5404H25.9356V31.5404ZM19.4821 32.5404V26.4557H17.4821V32.5404H19.4821ZM19.4821 26.4557C19.4821 24.8394 18.23 23.6039 16.6187 23.6039V25.6039C17.1371 25.6039 17.4821 25.9557 17.4821 26.4557H19.4821ZM16.6187 23.6039H8.89905V25.6039H16.6187V23.6039ZM9.89905 24.6039V18.387H7.89905V24.6039H9.89905ZM8.89905 19.387H12.892V17.387H8.89905V19.387ZM12.892 19.387C14.1039 19.387 15.0899 18.416 15.0899 17.1965H13.0899C13.0899 17.2997 13.0111 17.387 12.892 17.387V19.387ZM15.0899 17.1965V13.4928H13.0899V17.1965H15.0899ZM14.0899 14.4928H25.9356V12.4928H14.0899V14.4928ZM25.9356 11.4346H13.9568V13.4346H25.9356V11.4346ZM13.9568 11.4346H12.7589V13.4346H13.9568V11.4346ZM11.7589 12.4346V13.625H13.7589V12.4346H11.7589ZM11.7589 13.625V17.1965H13.7589V13.625H11.7589ZM12.7589 16.1965H8.89905V18.1965H12.7589V16.1965ZM8.89905 16.1965H7.70117V18.1965H8.89905V16.1965ZM6.70117 17.1965V18.387H8.70117V17.1965H6.70117ZM6.70117 18.387V24.6039H8.70117V18.387H6.70117ZM6.70117 24.6039V25.7944H8.70117V24.6039H6.70117ZM7.70117 26.7944H8.89905V24.7944H7.70117V26.7944ZM8.89905 26.7944H16.6187V24.7944H8.89905V26.7944ZM16.6187 26.7944C16.593 26.7944 16.493 26.7816 16.3963 26.6855C16.2991 26.5889 16.2842 26.4864 16.2842 26.4557H18.2842C18.2842 26.0282 18.1363 25.5951 17.8061 25.2669C17.4765 24.9394 17.0438 24.7944 16.6187 24.7944V26.7944ZM16.2842 26.4557V32.5404H18.2842V26.4557H16.2842ZM16.2842 32.5404V33.7309H18.2842V32.5404H16.2842ZM17.2842 34.7309H18.4821V32.7309H17.2842V34.7309ZM18.4821 34.7309H25.9356V32.7309H18.4821V34.7309ZM25.9356 34.7309C28.2123 34.7309 30.13 32.834 30.13 30.5563H28.13C28.13 31.7177 27.1195 32.7309 25.9356 32.7309V34.7309ZM30.13 30.5563V15.6092H28.13V30.5563H30.13ZM30.1274 15.6809C30.3094 13.1483 28.2723 11.4346 25.9356 11.4346V13.4346C27.3257 13.4346 28.2167 14.3664 28.1325 15.5375L30.1274 15.6809Z" fill="white" mask="url(#path-48-inside-1_869_1277)"/>
</svg>
