<svg width="130" height="130" viewBox="0 0 130 130" fill="none" xmlns="http://www.w3.org/2000/svg">
<g filter="url(#filter0_d_500_171503)">
<mask id="mask0_500_171503" style="mask-type:alpha" maskUnits="userSpaceOnUse" x="20" y="20" width="90" height="90">
<circle cx="65" cy="65" r="45" fill="#D9D9D9"/>
</mask>
<g mask="url(#mask0_500_171503)">
<circle cx="65" cy="65" r="45" fill="#D6EEFF"/>
<path d="M64.8503 78.972C83.1673 78.972 98.0161 72.3045 98.0161 64.0798C98.0161 55.855 83.1673 49.1875 64.8503 49.1875C46.5334 49.1875 31.6846 55.855 31.6846 64.0798C31.6846 72.3045 46.5334 78.972 64.8503 78.972Z" fill="#043340"/>
<path d="M35.563 71.0656C36.1597 71.5629 36.8061 72.0352 37.5022 72.5076C35.7868 67.5601 35.0409 62.0905 35.2149 57.3916C34.668 57.864 34.1956 58.3612 33.7729 58.8833C33.7729 62.7369 34.3696 67.0131 35.563 71.0656Z" fill="#00AB2D"/>
<path d="M95.9275 58.8589C95.5049 58.3368 95.0076 57.8396 94.4607 57.3672C94.7342 62.0909 93.7894 67.6849 91.8999 72.6821C92.6458 72.2097 93.317 71.7374 93.9137 71.2401C95.2562 67.113 95.9275 62.7871 95.9275 58.8589Z" fill="#00AB2D"/>
<path d="M84.0691 81.8818C84.0691 81.8818 103.362 107.614 103.362 115.545C103.362 123.476 92.9697 130.561 92.9697 130.561L76.1382 81.8818H84.0691Z" fill="#D7DEE0"/>
<path d="M98.8366 125.315C97.5438 124.047 96.4002 122.456 95.8532 120.517C94.6598 116.439 90.2344 98.5388 87.4748 86.5554C85.4609 83.7212 84.0935 81.9062 84.0935 81.9062H76.1626L92.9941 130.586C92.9692 130.561 96.0272 128.473 98.8366 125.315Z" fill="#84888A"/>
<path d="M47.2484 82.6523C47.2484 82.6523 27.9556 108.384 27.9556 116.315C27.9556 124.246 38.3478 131.332 38.3478 131.332L55.1793 82.6523H47.2484Z" fill="#D7DEE0"/>
<path d="M43.2954 97.5689C43.2954 102.964 36.0109 121.411 33.6987 127.154C36.1352 129.666 38.4722 131.232 38.4722 131.232L55.3037 82.5771H47.3728C47.3728 82.5771 45.359 85.2622 42.6241 89.1904C42.9971 91.6517 43.2954 94.7097 43.2954 97.5689Z" fill="#84888A"/>
<path d="M93.1931 127.876C82.4776 138.591 72.2594 137.448 72.2594 137.448C72.2594 137.448 68.4804 137.448 63.2097 137.448H61.3201C58.1378 137.448 52.3699 135.31 47.4721 132.227C47.4721 132.227 47.4721 132.227 47.4472 132.227C46.9997 131.953 46.5771 131.68 46.1544 131.382C45.3837 130.859 44.6378 130.312 43.9666 129.741C41.0577 127.329 39.019 124.619 39.019 122.033C39.019 121.362 39.1185 120.442 39.3174 119.348C39.4666 118.528 39.6406 117.608 39.8643 116.614C42.5743 104.655 50.8284 81.0859 50.8284 81.0859H82.5522C82.5522 81.0611 95.008 126.061 93.1931 127.876Z" fill="#D7DEE0"/>
<path d="M83.323 83.8958C82.8506 82.1057 82.5523 81.0615 82.5523 81.0615H50.8037C50.8037 81.0615 50.3313 82.4041 49.5854 84.6168C49.5854 84.6168 51.6738 91.1554 67.9584 91.1554C74.3727 91.1306 79.4694 87.8737 83.323 83.8958Z" fill="#84888A"/>
<path d="M78.674 85.2876H52.743C47.2486 85.2876 42.7734 80.8125 42.7734 75.318V63.6578V49.3622C42.7734 43.8677 47.2237 39.3926 52.743 39.3926H64.8508H66.5663H78.674C84.1685 39.3926 88.6436 43.8677 88.6436 49.3622V62.9368V75.318C88.6436 80.8125 84.1933 85.2876 78.674 85.2876Z" fill="#D7DEE0"/>
<path d="M77.9776 93.7412H76.834V109.28H77.9776V93.7412Z" fill="#504F50"/>
<path d="M79.7429 96.7236H77.7539V97.3203H79.7429V96.7236Z" fill="#504F50"/>
<path d="M77.0829 101.1H75.2183V101.522H77.0829V101.1Z" fill="#504F50"/>
<path opacity="0.57" d="M38.3229 98.7376C38.3229 98.7376 31.1875 109.652 31.1875 112.561C31.1875 115.47 45.7814 94.4365 38.3229 98.7376Z" fill="white"/>
<path opacity="0.57" d="M49.5854 93.7403C49.5854 93.7403 43.4942 111.119 44.9362 112.561C46.3782 114.003 52.6682 121.163 53.5135 125.588C54.3837 130.014 70.9417 131.68 73.1047 128.348C75.2428 125.017 56.5218 119.597 56.5218 111.268C56.5218 102.914 55.5522 87.7735 49.5854 93.7403Z" fill="white"/>
<path d="M88.6436 64.652V62.9365H78.7983L78.7734 63.7818C78.7734 70.7929 73.1298 76.5111 66.1933 76.5111C59.4806 76.5111 53.9861 71.1907 53.6381 64.5028V63.6575H42.7734V65.373H51.9972C52.743 72.1354 58.1381 77.5056 64.8756 78.152V85.2625H66.5911V78.2017C74.0248 78.0028 80.0663 72.0608 80.4889 64.6271H88.6436V64.652Z" fill="#424148"/>
<path d="M66.5665 39.3926H64.8511V54.7572H66.5665V39.3926Z" fill="#424148"/>
<path d="M66.1928 73.5522C71.5341 73.5522 75.864 69.1777 75.864 63.7815C75.864 58.3852 71.5341 54.0107 66.1928 54.0107C60.8515 54.0107 56.5215 58.3852 56.5215 63.7815C56.5215 69.1777 60.8515 73.5522 66.1928 73.5522Z" fill="#0C0C0C"/>
<path d="M66.1931 72.4337C70.9165 72.4337 74.7456 68.5601 74.7456 63.7818C74.7456 59.0035 70.9165 55.1299 66.1931 55.1299C61.4697 55.1299 57.6406 59.0035 57.6406 63.7818C57.6406 68.5601 61.4697 72.4337 66.1931 72.4337Z" fill="#1D2F50"/>
<path d="M66.1932 70.2456C69.7357 70.2456 72.6075 67.3515 72.6075 63.7815C72.6075 60.2115 69.7357 57.3174 66.1932 57.3174C62.6506 57.3174 59.7788 60.2115 59.7788 63.7815C59.7788 67.3515 62.6506 70.2456 66.1932 70.2456Z" fill="#00B0DA"/>
<path opacity="0.57" d="M68.2318 64.1548C70.0992 64.1548 71.613 62.6188 71.613 60.7239C71.613 58.8291 70.0992 57.293 68.2318 57.293C66.3644 57.293 64.8506 58.8291 64.8506 60.7239C64.8506 62.6188 66.3644 64.1548 68.2318 64.1548Z" fill="white"/>
</g>
</g>
<defs>
<filter id="filter0_d_500_171503" x="0" y="0" width="130" height="130" filterUnits="userSpaceOnUse" color-interpolation-filters="sRGB">
<feFlood flood-opacity="0" result="BackgroundImageFix"/>
<feColorMatrix in="SourceAlpha" type="matrix" values="0 0 0 0 0 0 0 0 0 0 0 0 0 0 0 0 0 0 127 0" result="hardAlpha"/>
<feOffset/>
<feGaussianBlur stdDeviation="10"/>
<feComposite in2="hardAlpha" operator="out"/>
<feColorMatrix type="matrix" values="0 0 0 0 1 0 0 0 0 1 0 0 0 0 1 0 0 0 1 0"/>
<feBlend mode="normal" in2="BackgroundImageFix" result="effect1_dropShadow_500_171503"/>
<feBlend mode="normal" in="SourceGraphic" in2="effect1_dropShadow_500_171503" result="shape"/>
</filter>
</defs>
</svg>
