<svg width="78" height="78" viewBox="0 0 78 78" fill="none" xmlns="http://www.w3.org/2000/svg">
<path fill-rule="evenodd" clip-rule="evenodd" d="M4.77643 4.77643C5.72833 3.82452 7.27167 3.82452 8.22357 4.77643L73.2236 69.7764C74.1755 70.7283 74.1755 72.2717 73.2236 73.2236C72.2717 74.1755 70.7283 74.1755 69.7764 73.2236L63.7146 67.1617C62.1183 67.8615 60.3545 68.2498 58.5 68.2498H19.5C12.3203 68.2498 6.5 62.4295 6.5 55.2498V22.7498C6.5 19.2102 7.91468 16.0009 10.2095 13.6566L4.77643 8.22357C3.82452 7.27167 3.82452 5.72833 4.77643 4.77643ZM71.5 55.25V22.75C71.5 15.5703 65.6797 9.75 58.5 9.75H22.75L45.0422 32.0422L57.1479 23.9717C58.268 23.225 59.7814 23.5277 60.5281 24.6478C61.2749 25.7679 60.9722 27.2812 59.8521 28.028L48.5576 35.5576L71.1706 58.1706C71.3862 57.2318 71.5 56.2542 71.5 55.25Z" fill="white"/>
</svg>
