<svg width="74" height="74" viewBox="0 0 74 74" fill="none" xmlns="http://www.w3.org/2000/svg">
<path fill-rule="evenodd" clip-rule="evenodd" d="M32.8892 60.444C48.1077 60.444 60.4447 48.107 60.4447 32.8885C60.4447 17.6699 48.1077 5.3329 32.8892 5.3329C17.6707 5.3329 5.33363 17.6699 5.33363 32.8885C5.33363 48.107 17.6707 60.444 32.8892 60.444ZM65.7781 32.8885C65.7781 51.0525 51.0532 65.7773 32.8892 65.7773C14.7252 65.7773 0.000297546 51.0525 0.000297546 32.8885C0.000297546 14.7244 14.7252 -0.000434875 32.8892 -0.000434875C51.0532 -0.000434875 65.7781 14.7244 65.7781 32.8885Z" fill="white"/>
<path d="M62.1078 71.9596C64.8283 74.6801 69.2391 74.6801 71.9596 71.9596C74.6801 69.2391 74.6801 64.8282 71.9596 62.1077L65.3519 55.5C62.6876 59.3462 59.3462 62.6876 55.5 65.3519L62.1078 71.9596Z" fill="white"/>
</svg>
