<svg width="118" height="118" viewBox="0 0 118 118" fill="none" xmlns="http://www.w3.org/2000/svg">
<g filter="url(#filter0_d_1550_197481)">
<mask id="mask0_1550_197481" style="mask-type:alpha" maskUnits="userSpaceOnUse" x="24" y="24" width="70" height="70">
<circle cx="59" cy="59" r="35" fill="#D9D9D9"/>
</mask>
<g mask="url(#mask0_1550_197481)">
<circle cx="59" cy="59" r="35" fill="#D6EEFF"/>
<path d="M58.8835 69.8672C73.13 69.8672 84.6791 64.6813 84.6791 58.2843C84.6791 51.8872 73.13 46.7014 58.8835 46.7014C44.637 46.7014 33.0879 51.8872 33.0879 58.2843C33.0879 64.6813 44.637 69.8672 58.8835 69.8672Z" fill="#043340"/>
<path d="M36.1032 63.7181C36.5673 64.1049 37.0701 64.4723 37.6115 64.8397C36.2772 60.9916 35.6971 56.7375 35.8325 53.0828C35.4071 53.4502 35.0397 53.8369 34.7109 54.243C34.7109 57.2402 35.175 60.5662 36.1032 63.7181Z" fill="#00AB2D"/>
<path d="M83.0545 54.2239C82.7257 53.8179 82.339 53.4311 81.9136 53.0637C82.1263 56.7378 81.3915 61.0886 79.9219 64.9753C80.502 64.6079 81.0241 64.2405 81.4882 63.8538C82.5324 60.6438 83.0545 57.2792 83.0545 54.2239Z" fill="#00AB2D"/>
<path d="M73.8326 72.1299C73.8326 72.1299 88.8381 92.1437 88.8381 98.3122C88.8381 104.481 80.7552 109.992 80.7552 109.992L67.6641 72.1299H73.8326Z" fill="#D7DEE0"/>
<path d="M85.319 105.911C84.3134 104.925 83.4239 103.688 82.9985 102.179C82.0703 99.008 78.6283 85.0854 76.4819 75.7649C74.9156 73.5605 73.8521 72.1489 73.8521 72.1489H67.6836L80.7748 110.011C80.7554 109.991 83.1339 108.367 85.319 105.911Z" fill="#84888A"/>
<path d="M45.195 72.7292C45.195 72.7292 30.1895 92.7431 30.1895 98.9116C30.1895 105.08 38.2723 110.591 38.2723 110.591L51.3635 72.7292H45.195Z" fill="#D7DEE0"/>
<path d="M42.1184 84.3314C42.1184 88.5275 36.4526 102.876 34.6543 107.342C36.5493 109.295 38.367 110.514 38.367 110.514L51.4582 72.6711H45.2897C45.2897 72.6711 43.7234 74.7595 41.5963 77.8148C41.8863 79.7292 42.1184 82.1076 42.1184 84.3314Z" fill="#84888A"/>
<path d="M80.9303 107.903C72.596 116.237 64.6485 115.348 64.6485 115.348C64.6485 115.348 61.7093 115.348 57.6098 115.348H56.1402C53.6651 115.348 49.1789 113.685 45.3695 111.287C45.3695 111.287 45.3695 111.287 45.3502 111.287C45.0021 111.074 44.6734 110.862 44.3446 110.63C43.7452 110.223 43.1651 109.798 42.643 109.353C40.3806 107.478 38.7949 105.37 38.7949 103.359C38.7949 102.837 38.8723 102.121 39.027 101.27C39.143 100.632 39.2783 99.9168 39.4524 99.1434C41.5601 89.8422 47.98 71.5108 47.98 71.5108H72.654C72.654 71.4914 82.3419 106.491 80.9303 107.903Z" fill="#D7DEE0"/>
<path d="M73.2521 73.6961C72.8846 72.3039 72.6526 71.4917 72.6526 71.4917H47.9592C47.9592 71.4917 47.5918 72.5359 47.0117 74.2569C47.0117 74.2569 48.636 79.3425 61.3018 79.3425C66.2907 79.3232 70.2548 76.79 73.2521 73.6961Z" fill="#84888A"/>
<path d="M69.6375 74.7789H49.469C45.1955 74.7789 41.7148 71.2982 41.7148 67.0248V57.9557V46.8369C41.7148 42.5634 45.1762 39.0828 49.469 39.0828H58.8861H60.2204H69.6375C73.911 39.0828 77.3916 42.5634 77.3916 46.8369V57.3949V67.0248C77.3916 71.2982 73.9303 74.7789 69.6375 74.7789Z" fill="#D7DEE0"/>
<path d="M69.0946 81.3535H68.2051V93.4392H69.0946V81.3535Z" fill="#504F50"/>
<path d="M70.4688 83.6736H68.9219V84.1377H70.4688V83.6736Z" fill="#504F50"/>
<path d="M68.3975 87.0774H66.9473V87.4061H68.3975V87.0774Z" fill="#504F50"/>
<path opacity="0.57" d="M38.2528 85.2403C38.2528 85.2403 32.7031 93.7292 32.7031 95.9916C32.7031 98.2541 44.054 81.895 38.2528 85.2403Z" fill="white"/>
<path opacity="0.57" d="M47.0124 81.3537C47.0124 81.3537 42.2748 94.8703 43.3964 95.9918C44.5179 97.1134 49.4102 102.682 50.0677 106.124C50.7444 109.566 63.6229 110.862 65.3052 108.271C66.9682 105.68 52.4074 101.464 52.4074 94.9863C52.4074 88.4891 51.6533 76.7128 47.0124 81.3537Z" fill="white"/>
<path d="M77.3916 58.729V57.3948H69.7342L69.7148 58.0522C69.7148 63.5053 65.3253 67.9528 59.9303 67.9528C54.7093 67.9528 50.4358 63.8147 50.1651 58.613V57.9555H41.7148V59.2898H48.8889C49.469 64.5495 53.6651 68.7263 58.9055 69.229V74.7594H60.2397V69.2677C66.0215 69.113 70.7204 64.4915 71.0491 58.7097H77.3916V58.729Z" fill="#424148"/>
<path d="M60.221 39.0828H58.8867V51.033H60.221V39.0828Z" fill="#424148"/>
<path d="M59.9283 65.652C64.0827 65.652 67.4504 62.2496 67.4504 58.0526C67.4504 53.8555 64.0827 50.4531 59.9283 50.4531C55.774 50.4531 52.4062 53.8555 52.4062 58.0526C52.4062 62.2496 55.774 65.652 59.9283 65.652Z" fill="#0C0C0C"/>
<path d="M59.9312 64.7818C63.605 64.7818 66.5832 61.769 66.5832 58.0525C66.5832 54.336 63.605 51.3232 59.9312 51.3232C56.2575 51.3232 53.2793 54.336 53.2793 58.0525C53.2793 61.769 56.2575 64.7818 59.9312 64.7818Z" fill="#1D2F50"/>
<path d="M59.9304 63.0799C62.6857 63.0799 64.9193 60.829 64.9193 58.0523C64.9193 55.2756 62.6857 53.0247 59.9304 53.0247C57.175 53.0247 54.9414 55.2756 54.9414 58.0523C54.9414 60.829 57.175 63.0799 59.9304 63.0799Z" fill="#00B0DA"/>
<path opacity="0.57" d="M61.5146 58.3424C62.967 58.3424 64.1444 57.1477 64.1444 55.6739C64.1444 54.2001 62.967 53.0054 61.5146 53.0054C60.0622 53.0054 58.8848 54.2001 58.8848 55.6739C58.8848 57.1477 60.0622 58.3424 61.5146 58.3424Z" fill="white"/>
</g>
</g>
<defs>
<filter id="filter0_d_1550_197481" x="0.444445" y="0.444445" width="117.111" height="117.111" filterUnits="userSpaceOnUse" color-interpolation-filters="sRGB">
<feFlood flood-opacity="0" result="BackgroundImageFix"/>
<feColorMatrix in="SourceAlpha" type="matrix" values="0 0 0 0 0 0 0 0 0 0 0 0 0 0 0 0 0 0 127 0" result="hardAlpha"/>
<feOffset/>
<feGaussianBlur stdDeviation="11.7778"/>
<feComposite in2="hardAlpha" operator="out"/>
<feColorMatrix type="matrix" values="0 0 0 0 1 0 0 0 0 1 0 0 0 0 1 0 0 0 1 0"/>
<feBlend mode="normal" in2="BackgroundImageFix" result="effect1_dropShadow_1550_197481"/>
<feBlend mode="normal" in="SourceGraphic" in2="effect1_dropShadow_1550_197481" result="shape"/>
</filter>
</defs>
</svg>
