<svg width="90" height="90" viewBox="0 0 90 90" fill="none" xmlns="http://www.w3.org/2000/svg">
<g filter="url(#filter0_d_615_169369)">
<mask id="mask0_615_169369" style="mask-type:alpha" maskUnits="userSpaceOnUse" x="20" y="20" width="50" height="50">
<circle cx="45" cy="45" r="25" fill="#D9D9D9"/>
</mask>
<g mask="url(#mask0_615_169369)">
<circle cx="45" cy="45" r="25" fill="#D6EEFF"/>
<path d="M44.9171 52.7623C55.0932 52.7623 63.3425 49.0581 63.3425 44.4888C63.3425 39.9195 55.0932 36.2153 44.9171 36.2153C34.741 36.2153 26.4917 39.9195 26.4917 44.4888C26.4917 49.0581 34.741 52.7623 44.9171 52.7623Z" fill="#043340"/>
<path d="M28.6463 48.3701C28.9778 48.6464 29.3369 48.9088 29.7237 49.1712C28.7706 46.4226 28.3563 43.3839 28.453 40.7734C28.1491 41.0359 27.8867 41.3121 27.6519 41.6022C27.6519 43.7431 27.9833 46.1187 28.6463 48.3701Z" fill="#00AB2D"/>
<path d="M62.1824 41.5885C61.9476 41.2984 61.6713 41.0222 61.3675 40.7598C61.5194 43.3841 60.9945 46.4918 59.9448 49.2681C60.3592 49.0056 60.7321 48.7432 61.0636 48.4669C61.8095 46.1741 62.1824 43.7708 62.1824 41.5885Z" fill="#00AB2D"/>
<path d="M55.5941 54.3784C55.5941 54.3784 66.3123 68.674 66.3123 73.0801C66.3123 77.4862 60.5388 81.4226 60.5388 81.4226L51.188 54.3784H55.5941Z" fill="#D7DEE0"/>
<path d="M63.7983 78.5081C63.0801 77.8037 62.4448 76.9197 62.1409 75.8424C61.4779 73.5772 59.0193 63.6324 57.4862 56.975C56.3674 55.4004 55.6077 54.3921 55.6077 54.3921H51.2017L60.5525 81.4363C60.5387 81.4225 62.2376 80.2623 63.7983 78.5081Z" fill="#84888A"/>
<path d="M35.1382 54.8066C35.1382 54.8066 24.4199 69.1022 24.4199 73.5083C24.4199 77.9144 30.1934 81.8508 30.1934 81.8508L39.5442 54.8066H35.1382Z" fill="#D7DEE0"/>
<path d="M32.9418 63.0939C32.9418 66.0911 28.8949 76.3397 27.6104 79.5303C28.9639 80.9254 30.2623 81.7955 30.2623 81.7955L39.6131 54.7651H35.207C35.207 54.7651 34.0883 56.2569 32.5689 58.4392C32.7761 59.8066 32.9418 61.5055 32.9418 63.0939Z" fill="#84888A"/>
<path d="M60.6628 79.931C54.7098 85.884 49.033 85.2487 49.033 85.2487C49.033 85.2487 46.9336 85.2487 44.0054 85.2487H42.9557C41.1877 85.2487 37.9833 84.0608 35.2623 82.3481C35.2623 82.3481 35.2623 82.3481 35.2485 82.3481C34.9999 82.1962 34.7651 82.0443 34.5303 81.8785C34.1021 81.5885 33.6877 81.2846 33.3148 80.9669C31.6988 79.6271 30.5662 78.1216 30.5662 76.6852C30.5662 76.3122 30.6214 75.8012 30.7319 75.1934C30.8148 74.7376 30.9115 74.2266 31.0358 73.6741C32.5413 67.0305 37.1269 53.9365 37.1269 53.9365H54.7512C54.7512 53.9227 61.6711 78.9227 60.6628 79.931Z" fill="#D7DEE0"/>
<path d="M55.1796 55.4969C54.9172 54.5025 54.7514 53.9224 54.7514 53.9224H37.1133C37.1133 53.9224 36.8509 54.6682 36.4365 55.8975C36.4365 55.8975 37.5967 59.5301 46.6437 59.5301C50.2072 59.5163 53.0387 57.7069 55.1796 55.4969Z" fill="#84888A"/>
<path d="M52.5966 56.2707H38.1905C35.138 56.2707 32.6519 53.7845 32.6519 50.732V44.2541V36.3121C32.6519 33.2596 35.1242 30.7734 38.1905 30.7734H44.917H45.8701H52.5966C55.6491 30.7734 58.1353 33.2596 58.1353 36.3121V43.8535V50.732C58.1353 53.7845 55.6629 56.2707 52.5966 56.2707Z" fill="#D7DEE0"/>
<path d="M52.2098 60.9668H51.5745V69.5994H52.2098V60.9668Z" fill="#504F50"/>
<path d="M53.1907 62.624H52.0857V62.9555H53.1907V62.624Z" fill="#504F50"/>
<path d="M51.7127 65.0552H50.6768V65.29H51.7127V65.0552Z" fill="#504F50"/>
<path opacity="0.57" d="M30.1797 63.7429C30.1797 63.7429 26.2156 69.8065 26.2156 71.4225C26.2156 73.0385 34.3233 61.3534 30.1797 63.7429Z" fill="white"/>
<path opacity="0.57" d="M36.4365 60.9671C36.4365 60.9671 33.0525 70.6218 33.8537 71.4229C34.6548 72.224 38.1492 76.2019 38.6188 78.6604C39.1023 81.119 48.3012 82.0444 49.5028 80.1936C50.6907 78.3428 40.2901 75.3317 40.2901 70.7046C40.2901 66.0638 39.7514 57.6521 36.4365 60.9671Z" fill="white"/>
<path d="M58.1353 44.8066V43.8535H52.6657L52.6519 44.3231C52.6519 48.2182 49.5165 51.395 45.6629 51.395C41.9336 51.395 38.8811 48.4392 38.6878 44.7237V44.2541H32.6519V45.2071H37.7762C38.1905 48.964 41.1878 51.9474 44.9309 52.3066V56.2568H45.8839V52.3342C50.0137 52.2237 53.3701 48.9226 53.6049 44.7927H58.1353V44.8066Z" fill="#424148"/>
<path d="M45.8703 30.7734H44.9172V39.3093H45.8703V30.7734Z" fill="#424148"/>
<path d="M45.663 49.7514C48.6304 49.7514 51.0359 47.3211 51.0359 44.3232C51.0359 41.3253 48.6304 38.895 45.663 38.895C42.6956 38.895 40.29 41.3253 40.29 44.3232C40.29 47.3211 42.6956 49.7514 45.663 49.7514Z" fill="#0C0C0C"/>
<path d="M45.663 49.1299C48.2871 49.1299 50.4144 46.9779 50.4144 44.3232C50.4144 41.6686 48.2871 39.5166 45.663 39.5166C43.0389 39.5166 40.9116 41.6686 40.9116 44.3232C40.9116 46.9779 43.0389 49.1299 45.663 49.1299Z" fill="#1D2F50"/>
<path d="M45.6629 47.9143C47.631 47.9143 49.2264 46.3064 49.2264 44.3231C49.2264 42.3398 47.631 40.7319 45.6629 40.7319C43.6948 40.7319 42.0994 42.3398 42.0994 44.3231C42.0994 46.3064 43.6948 47.9143 45.6629 47.9143Z" fill="#00B0DA"/>
<path opacity="0.57" d="M46.7957 44.5304C47.8331 44.5304 48.6741 43.677 48.6741 42.6243C48.6741 41.5716 47.8331 40.7183 46.7957 40.7183C45.7582 40.7183 44.9172 41.5716 44.9172 42.6243C44.9172 43.677 45.7582 44.5304 46.7957 44.5304Z" fill="white"/>
</g>
</g>
<defs>
<filter id="filter0_d_615_169369" x="0" y="0" width="90" height="90" filterUnits="userSpaceOnUse" color-interpolation-filters="sRGB">
<feFlood flood-opacity="0" result="BackgroundImageFix"/>
<feColorMatrix in="SourceAlpha" type="matrix" values="0 0 0 0 0 0 0 0 0 0 0 0 0 0 0 0 0 0 127 0" result="hardAlpha"/>
<feOffset/>
<feGaussianBlur stdDeviation="10"/>
<feComposite in2="hardAlpha" operator="out"/>
<feColorMatrix type="matrix" values="0 0 0 0 1 0 0 0 0 1 0 0 0 0 1 0 0 0 1 0"/>
<feBlend mode="normal" in2="BackgroundImageFix" result="effect1_dropShadow_615_169369"/>
<feBlend mode="normal" in="SourceGraphic" in2="effect1_dropShadow_615_169369" result="shape"/>
</filter>
</defs>
</svg>
