<svg width="130" height="130" viewBox="0 0 130 130" fill="none" xmlns="http://www.w3.org/2000/svg">
<g filter="url(#filter0_d_870_199331)">
<mask id="mask0_870_199331" style="mask-type:alpha" maskUnits="userSpaceOnUse" x="20" y="20" width="90" height="90">
<circle cx="65" cy="65" r="45" fill="#D9D9D9"/>
</mask>
<g mask="url(#mask0_870_199331)">
<circle cx="65" cy="65" r="45" fill="#D6EEFF"/>
<path d="M64.8508 78.972C83.1677 78.972 98.0165 72.3045 98.0165 64.0798C98.0165 55.855 83.1677 49.1875 64.8508 49.1875C46.5339 49.1875 31.6851 55.855 31.6851 64.0798C31.6851 72.3045 46.5339 78.972 64.8508 78.972Z" fill="#043340"/>
<path d="M35.5635 71.0656C36.1602 71.5629 36.8066 72.0352 37.5027 72.5076C35.7873 67.5601 35.0414 62.0905 35.2154 57.3916C34.6685 57.864 34.1961 58.3612 33.7734 58.8833C33.7734 62.7369 34.3701 67.0131 35.5635 71.0656Z" fill="#00AB2D"/>
<path d="M95.9283 58.8589C95.5056 58.3368 95.0084 57.8396 94.4614 57.3672C94.7349 62.0909 93.7901 67.6849 91.9006 72.6821C92.6465 72.2097 93.3178 71.7374 93.9144 71.2401C95.257 67.113 95.9283 62.7871 95.9283 58.8589Z" fill="#00AB2D"/>
<path d="M84.0691 81.8818C84.0691 81.8818 103.362 107.614 103.362 115.545C103.362 123.476 92.9697 130.561 92.9697 130.561L76.1382 81.8818H84.0691Z" fill="#D7DEE0"/>
<path d="M98.8369 125.315C97.5441 124.047 96.4004 122.456 95.8535 120.517C94.6601 116.439 90.2347 98.5388 87.475 86.5554C85.4612 83.7212 84.0938 81.9062 84.0938 81.9062H76.1628L92.9943 130.586C92.9695 130.561 96.0275 128.473 98.8369 125.315Z" fill="#84888A"/>
<path d="M47.2486 82.6523C47.2486 82.6523 27.9558 108.384 27.9558 116.315C27.9558 124.246 38.3481 131.332 38.3481 131.332L55.1796 82.6523H47.2486Z" fill="#D7DEE0"/>
<path d="M43.2954 97.5689C43.2954 102.964 36.0109 121.411 33.6987 127.154C36.1352 129.666 38.4722 131.232 38.4722 131.232L55.3037 82.5771H47.3728C47.3728 82.5771 45.359 85.2622 42.6241 89.1904C42.9971 91.6517 43.2954 94.7097 43.2954 97.5689Z" fill="#84888A"/>
<path d="M93.1933 127.876C82.4778 138.591 72.2596 137.448 72.2596 137.448C72.2596 137.448 68.4806 137.448 63.2099 137.448H61.3204C58.1381 137.448 52.3701 135.31 47.4723 132.227C47.4723 132.227 47.4723 132.227 47.4475 132.227C47 131.953 46.5773 131.68 46.1546 131.382C45.3839 130.859 44.6381 130.312 43.9668 129.741C41.058 127.329 39.0193 124.619 39.0193 122.033C39.0193 121.362 39.1187 120.442 39.3176 119.348C39.4668 118.528 39.6408 117.608 39.8646 116.614C42.5745 104.655 50.8287 81.0859 50.8287 81.0859H82.5524C82.5524 81.0611 95.0082 126.061 93.1933 127.876Z" fill="#D7DEE0"/>
<path d="M83.3233 83.8958C82.8509 82.1057 82.5525 81.0615 82.5525 81.0615H50.8039C50.8039 81.0615 50.3315 82.4041 49.5857 84.6168C49.5857 84.6168 51.6741 91.1554 67.9586 91.1554C74.373 91.1306 79.4697 87.8737 83.3233 83.8958Z" fill="#84888A"/>
<path d="M78.674 85.2876H52.743C47.2486 85.2876 42.7734 80.8125 42.7734 75.318V63.6578V49.3622C42.7734 43.8677 47.2237 39.3926 52.743 39.3926H64.8508H66.5663H78.674C84.1685 39.3926 88.6436 43.8677 88.6436 49.3622V62.9368V75.318C88.6436 80.8125 84.1933 85.2876 78.674 85.2876Z" fill="#D7DEE0"/>
<path d="M77.9779 93.7412H76.8342V109.28H77.9779V93.7412Z" fill="#504F50"/>
<path d="M79.7433 96.7236H77.7544V97.3203H79.7433V96.7236Z" fill="#504F50"/>
<path d="M77.0829 101.1H75.2183V101.522H77.0829V101.1Z" fill="#504F50"/>
<path opacity="0.57" d="M38.3233 98.7376C38.3233 98.7376 31.188 109.652 31.188 112.561C31.188 115.47 45.7819 94.4365 38.3233 98.7376Z" fill="white"/>
<path opacity="0.57" d="M49.5856 93.7403C49.5856 93.7403 43.4944 111.119 44.9364 112.561C46.3784 114.003 52.6685 121.163 53.5138 125.588C54.3839 130.014 70.942 131.68 73.1049 128.348C75.2431 125.017 56.5221 119.597 56.5221 111.268C56.5221 102.914 55.5525 87.7735 49.5856 93.7403Z" fill="white"/>
<path d="M88.6436 64.652V62.9365H78.7983L78.7734 63.7818C78.7734 70.7929 73.1298 76.5111 66.1933 76.5111C59.4806 76.5111 53.9861 71.1907 53.6381 64.5028V63.6575H42.7734V65.373H51.9972C52.743 72.1354 58.1381 77.5056 64.8756 78.152V85.2625H66.5911V78.2017C74.0248 78.0028 80.0663 72.0608 80.4889 64.6271H88.6436V64.652Z" fill="#424148"/>
<path d="M66.5663 39.3926H64.8508V54.7572H66.5663V39.3926Z" fill="#424148"/>
<path d="M66.1932 73.5522C71.5345 73.5522 75.8645 69.1777 75.8645 63.7815C75.8645 58.3852 71.5345 54.0107 66.1932 54.0107C60.8519 54.0107 56.522 58.3852 56.522 63.7815C56.522 69.1777 60.8519 73.5522 66.1932 73.5522Z" fill="#0C0C0C"/>
<path d="M66.1934 72.4337C70.9168 72.4337 74.7458 68.5601 74.7458 63.7818C74.7458 59.0035 70.9168 55.1299 66.1934 55.1299C61.4699 55.1299 57.6409 59.0035 57.6409 63.7818C57.6409 68.5601 61.4699 72.4337 66.1934 72.4337Z" fill="#1D2F50"/>
<path d="M66.1934 70.2456C69.736 70.2456 72.6078 67.3515 72.6078 63.7815C72.6078 60.2115 69.736 57.3174 66.1934 57.3174C62.6509 57.3174 59.7791 60.2115 59.7791 63.7815C59.7791 67.3515 62.6509 70.2456 66.1934 70.2456Z" fill="#00B0DA"/>
<path opacity="0.57" d="M68.232 64.1548C70.0994 64.1548 71.6133 62.6188 71.6133 60.7239C71.6133 58.8291 70.0994 57.293 68.232 57.293C66.3647 57.293 64.8508 58.8291 64.8508 60.7239C64.8508 62.6188 66.3647 64.1548 68.232 64.1548Z" fill="white"/>
</g>
</g>
<defs>
<filter id="filter0_d_870_199331" x="0" y="0" width="130" height="130" filterUnits="userSpaceOnUse" color-interpolation-filters="sRGB">
<feFlood flood-opacity="0" result="BackgroundImageFix"/>
<feColorMatrix in="SourceAlpha" type="matrix" values="0 0 0 0 0 0 0 0 0 0 0 0 0 0 0 0 0 0 127 0" result="hardAlpha"/>
<feOffset/>
<feGaussianBlur stdDeviation="10"/>
<feComposite in2="hardAlpha" operator="out"/>
<feColorMatrix type="matrix" values="0 0 0 0 1 0 0 0 0 1 0 0 0 0 1 0 0 0 1 0"/>
<feBlend mode="normal" in2="BackgroundImageFix" result="effect1_dropShadow_870_199331"/>
<feBlend mode="normal" in="SourceGraphic" in2="effect1_dropShadow_870_199331" result="shape"/>
</filter>
</defs>
</svg>
