<svg width="70" height="70" viewBox="0 0 70 70" fill="none" xmlns="http://www.w3.org/2000/svg">
<path fill-rule="evenodd" clip-rule="evenodd" d="M49.0501 47.0613L35.5833 57.1568C31.7377 60.0396 26.25 57.297 26.25 52.4922L26.25 17.5081C26.25 12.7034 31.7377 9.9607 35.5833 12.8436L49.0501 22.939C49.3962 23.1985 49.8171 23.3388 50.2497 23.3388H58.3333C61.555 23.3388 64.1666 25.9493 64.1666 29.1695V40.8309C64.1666 44.051 61.555 46.6615 58.3333 46.6615H50.2497C49.8171 46.6615 49.3962 46.8018 49.0501 47.0613ZM19.6875 37.1877C20.8956 37.1877 21.875 36.2083 21.875 35.0002C21.875 33.792 20.8956 32.8127 19.6875 32.8127H8.02079C6.81267 32.8127 5.83329 33.792 5.83329 35.0002C5.83329 36.2083 6.81267 37.1877 8.02079 37.1877H19.6875Z" fill="#D6EEFF"/>
</svg>
