<svg width="70" height="70" viewBox="0 0 70 70" fill="none" xmlns="http://www.w3.org/2000/svg">
<path fill-rule="evenodd" clip-rule="evenodd" d="M49.0501 47.0613L35.5834 57.1568C31.7378 60.0396 26.25 57.297 26.25 52.4922L26.25 17.5081C26.25 12.7034 31.7378 9.9607 35.5834 12.8436L49.0501 22.939C49.3963 23.1985 49.8172 23.3388 50.2498 23.3388H58.3334C61.555 23.3388 64.1667 25.9493 64.1667 29.1695V40.8309C64.1667 44.051 61.555 46.6615 58.3334 46.6615H50.2498C49.8172 46.6615 49.3963 46.8018 49.0501 47.0613ZM19.2523 51.4356C20.4363 51.6759 21.5909 50.911 21.8312 49.727C22.0716 48.543 21.3066 47.3884 20.1226 47.148C14.4655 45.9997 10.2083 40.9947 10.2083 35.0002C10.2083 29.0058 14.4655 24.0007 20.1226 22.8524C21.3066 22.612 22.0716 21.4574 21.8312 20.2734C21.5909 19.0895 20.4363 18.3245 19.2523 18.5648C11.5963 20.1189 5.83328 26.8841 5.83328 35.0002C5.83328 43.1163 11.5963 49.8815 19.2523 51.4356ZM18.5921 41.9467C19.6379 42.5516 20.976 42.1942 21.581 41.1485C22.1859 40.1027 21.8285 38.7646 20.7828 38.1596C19.6873 37.526 18.9583 36.3469 18.9583 35.0002C18.9583 33.6535 19.6873 32.4745 20.7828 31.8408C21.8285 31.2359 22.1859 29.8977 21.581 28.8519C20.976 27.8062 19.6379 27.4488 18.5921 28.0538C16.2004 29.4373 14.5833 32.0286 14.5833 35.0002C14.5833 37.9718 16.2004 40.5631 18.5921 41.9467Z" fill="#D6EEFF"/>
</svg>
