<svg width="70" height="70" viewBox="0 0 70 70" fill="none" xmlns="http://www.w3.org/2000/svg">
<path fill-rule="evenodd" clip-rule="evenodd" d="M56.7867 59.8798C57.641 60.7341 59.026 60.7341 59.8803 59.8798C60.7346 59.0255 60.7346 57.6405 59.8803 56.7862L49.7551 46.661H52.5002C55.7218 46.661 58.3335 44.0506 58.3335 40.8304L58.3335 29.169C58.3335 25.9488 55.7218 23.3383 52.5002 23.3383H44.4166C43.984 23.3383 43.5631 23.198 43.2169 22.9386L29.7502 12.8431C25.9535 9.99686 20.5561 12.634 20.4195 17.3254L13.2136 10.1195C12.3594 9.26527 10.9743 9.26527 10.12 10.1195C9.26576 10.9738 9.26576 12.3589 10.12 13.2131L56.7867 59.8798ZM20.4168 52.4917L20.4168 29.3433L40.312 49.2385L29.7502 57.1563C25.9046 60.0391 20.4168 57.2965 20.4168 52.4917Z" fill="#D6EEFF"/>
</svg>
