<svg width="70" height="70" viewBox="0 0 70 70" fill="none" xmlns="http://www.w3.org/2000/svg">
<path fill-rule="evenodd" clip-rule="evenodd" d="M49.0501 47.0613L35.5833 57.1568C31.7377 60.0396 26.25 57.297 26.25 52.4922L26.25 17.5081C26.25 12.7034 31.7377 9.9607 35.5833 12.8436L49.0501 22.939C49.3962 23.1985 49.8171 23.3388 50.2497 23.3388H58.3333C61.555 23.3388 64.1666 25.9493 64.1666 29.1695V40.8309C64.1666 44.051 61.555 46.6615 58.3333 46.6615H50.2497C49.8171 46.6615 49.3962 46.8018 49.0501 47.0613ZM13.8541 26.9793C15.0622 26.9793 16.0416 27.9587 16.0416 29.1668L16.0416 32.8127H19.6875C20.8956 32.8127 21.875 33.792 21.875 35.0002C21.875 36.2083 20.8956 37.1877 19.6875 37.1877H16.0416V40.8335C16.0416 42.0416 15.0622 43.021 13.8541 43.021C12.646 43.021 11.6666 42.0416 11.6666 40.8335V37.1877H8.02079C6.81267 37.1877 5.83329 36.2083 5.83329 35.0002C5.83329 33.792 6.81267 32.8127 8.02079 32.8127H11.6666L11.6666 29.1668C11.6666 27.9587 12.646 26.9793 13.8541 26.9793Z" fill="#D6EEFF"/>
</svg>
